REM DIRINDEX 1\2\5,1\2\6,1\2\7,1\2\8,1\3\9,1\3\10,1\3\11,1\4\12,1\4\13,1\4\14,1\4\15,1\4\16
REM DIRNAME cjc034,folder01,folder02,folder03,folder04,folder05,folder06,folder07,folder08,folder09,folder10,folder11,folder12,folder13,folder14,folder15
TITLE ""
FILE "1200_sec01_0085_0092.mp3" MP3
  TRACK 01 AUDIO
    TITLE "0:"
    INDEX 01 00:00:00
  TRACK 02 AUDIO
    TITLE "12:cjc034_03965"
    INDEX 01 00:00:27
  TRACK 03 AUDIO
    TITLE "0:"
    INDEX 01 00:01:34
  TRACK 04 AUDIO
    TITLE "13:cjc034_03966"
    INDEX 01 00:01:66
  TRACK 05 AUDIO
    TITLE "0:"
    INDEX 01 00:05:32
  TRACK 06 AUDIO
    TITLE "14:cjc034_03967"
    INDEX 01 00:06:00
  TRACK 07 AUDIO
    TITLE "0:"
    INDEX 01 00:07:07
  TRACK 08 AUDIO
    TITLE "15:cjc034_03968"
    INDEX 01 00:07:39
  TRACK 09 AUDIO
    TITLE "0:"
    INDEX 01 00:11:03
  TRACK 10 AUDIO
    TITLE "12:cjc034_03969"
    INDEX 01 00:12:36
  TRACK 11 AUDIO
    TITLE "0:"
    INDEX 01 00:13:59
  TRACK 12 AUDIO
    TITLE "13:cjc034_03970"
    INDEX 01 00:14:17
  TRACK 13 AUDIO
    TITLE "0:"
    INDEX 01 00:15:46
  TRACK 14 AUDIO
    TITLE "14:cjc034_03971"
    INDEX 01 00:16:04
  TRACK 15 AUDIO
    TITLE "0:"
    INDEX 01 00:17:27
  TRACK 16 AUDIO
    TITLE "15:cjc034_03972"
    INDEX 01 00:17:63
  TRACK 17 AUDIO
    TITLE "0:"
    INDEX 01 00:22:38
  TRACK 18 AUDIO
    TITLE "12:cjc034_03973"
    INDEX 01 00:23:71
  TRACK 19 AUDIO
    TITLE "0:"
    INDEX 01 00:25:05
  TRACK 20 AUDIO
    TITLE "13:cjc034_03974"
    INDEX 01 00:25:39
  TRACK 21 AUDIO
    TITLE "0:"
    INDEX 01 00:26:58
  TRACK 22 AUDIO
    TITLE "14:cjc034_03975"
    INDEX 01 00:27:18
  TRACK 23 AUDIO
    TITLE "0:"
    INDEX 01 00:28:29
  TRACK 24 AUDIO
    TITLE "15:cjc034_03976"
    INDEX 01 00:28:60
  TRACK 25 AUDIO
    TITLE "0:"
    INDEX 01 00:30:38
  TRACK 26 AUDIO
    TITLE "12:cjc034_03977"
    INDEX 01 00:32:13
  TRACK 27 AUDIO
    TITLE "0:"
    INDEX 01 00:33:36
  TRACK 28 AUDIO
    TITLE "13:cjc034_03978"
    INDEX 01 00:33:69
  TRACK 29 AUDIO
    TITLE "0:"
    INDEX 01 00:35:19
  TRACK 30 AUDIO
    TITLE "14:cjc034_03979"
    INDEX 01 00:35:51
  TRACK 31 AUDIO
    TITLE "0:"
    INDEX 01 00:36:72
  TRACK 32 AUDIO
    TITLE "15:cjc034_03980"
    INDEX 01 00:37:32
  TRACK 33 AUDIO
    TITLE "0:"
    INDEX 01 00:41:30
  TRACK 34 AUDIO
    TITLE "12:cjc034_03981"
    INDEX 01 00:42:65
  TRACK 35 AUDIO
    TITLE "0:"
    INDEX 01 00:44:01
  TRACK 36 AUDIO
    TITLE "13:cjc034_03982"
    INDEX 01 00:44:34
  TRACK 37 AUDIO
    TITLE "0:"
    INDEX 01 00:45:61
  TRACK 38 AUDIO
    TITLE "14:cjc034_03983"
    INDEX 01 00:46:17
  TRACK 39 AUDIO
    TITLE "0:"
    INDEX 01 00:47:30
  TRACK 40 AUDIO
    TITLE "15:cjc034_03984"
    INDEX 01 00:47:62
  TRACK 41 AUDIO
    TITLE "0:"
    INDEX 01 00:51:67
  TRACK 42 AUDIO
    TITLE "12:cjc034_03985"
    INDEX 01 00:53:25
  TRACK 43 AUDIO
    TITLE "0:"
    INDEX 01 00:54:34
  TRACK 44 AUDIO
    TITLE "13:cjc034_03986"
    INDEX 01 00:54:68
  TRACK 45 AUDIO
    TITLE "0:"
    INDEX 01 00:56:20
  TRACK 46 AUDIO
    TITLE "14:cjc034_03987"
    INDEX 01 00:56:51
  TRACK 47 AUDIO
    TITLE "0:"
    INDEX 01 00:57:60
  TRACK 48 AUDIO
    TITLE "15:cjc034_03988"
    INDEX 01 00:58:18
  TRACK 49 AUDIO
    TITLE "0:"
    INDEX 01 01:00:45
  TRACK 50 AUDIO
    TITLE "16:cjc034_03989"
    INDEX 01 01:02:05
  TRACK 51 AUDIO
    TITLE "0:"
    INDEX 01 01:03:51
  TRACK 52 AUDIO
    TITLE "12:cjc034_03990"
    INDEX 01 01:04:50
  TRACK 53 AUDIO
    TITLE "0:"
    INDEX 01 01:05:69
  TRACK 54 AUDIO
    TITLE "13:cjc034_03991"
    INDEX 01 01:06:24
  TRACK 55 AUDIO
    TITLE "0:"
    INDEX 01 01:07:43
  TRACK 56 AUDIO
    TITLE "14:cjc034_03992"
    INDEX 01 01:08:01
  TRACK 57 AUDIO
    TITLE "0:"
    INDEX 01 01:09:18
  TRACK 58 AUDIO
    TITLE "15:cjc034_03993"
    INDEX 01 01:09:52
  TRACK 59 AUDIO
    TITLE "0:"
    INDEX 01 01:13:36
  TRACK 60 AUDIO
    TITLE "12:cjc034_03994"
    INDEX 01 01:14:74
  TRACK 61 AUDIO
    TITLE "0:"
    INDEX 01 01:16:05
  TRACK 62 AUDIO
    TITLE "13:cjc034_03995"
    INDEX 01 01:16:40
  TRACK 63 AUDIO
    TITLE "0:"
    INDEX 01 01:17:32
  TRACK 64 AUDIO
    TITLE "14:cjc034_03996"
    INDEX 01 01:17:63
  TRACK 65 AUDIO
    TITLE "0:"
    INDEX 01 01:18:68
  TRACK 66 AUDIO
    TITLE "15:cjc034_03997"
    INDEX 01 01:19:27
  TRACK 67 AUDIO
    TITLE "0:"
    INDEX 01 01:22:21
